Coordinates
version=1
nRows=4
nColumns=60
inDegrees=yes

Units are S.I. units (second, meters, Newtons, ...)
If the header above contains a line with 'inDegrees', this indicates whether rotational values are in degrees (yes) or radians (no).

endheader
time	pelvis_tilt	pelvis_list	pelvis_rotation	pelvis_tx	pelvis_ty	pelvis_tz	hip_flexion_r	hip_adduction_r	hip_rotation_r	knee_angle_r_beta	knee_angle_r	ankle_angle_r	subtalar_angle_r	mtp_angle_r	hip_flexion_l	hip_adduction_l	hip_rotation_l	knee_angle_l_beta	knee_angle_l	ankle_angle_l	subtalar_angle_l	mtp_angle_l	L5_S1_Flex_Ext	L5_S1_Lat_Bending	L5_S1_axial_rotation	L4_L5_Flex_Ext	L4_L5_Lat_Bending	L4_L5_axial_rotation	L3_L4_Flex_Ext	L3_L4_Lat_Bending	L3_L4_axial_rotation	L2_L3_Flex_Ext	L2_L3_Lat_Bending	L2_L3_axial_rotation	L1_L2_Flex_Ext	L1_L2_Lat_Bending	L1_L2_axial_rotation	L1_T12_Flex_Ext	L1_T12_Lat_Bending	L1_T12_axial_rotation	Abs_r3	Abs_r2	Abs_r1	Abs_t1	Abs_t2	arm_flex_r	arm_add_r	arm_rot_r	elbow_flex_r	pro_sup_r	wrist_flex_r	wrist_dev_r	arm_flex_l	arm_add_l	arm_rot_l	elbow_flex_l	pro_sup_l	wrist_flex_l	wrist_dev_l
      7.39000000	      0.97584844	      6.45803762	     92.08232925	      0.40049737	      0.94100551	      0.30467345	      4.08962870	     -3.52461235	     -0.71176100	      0.24832035	    -14.22770807	      5.83317207	      0.00000000	      0.00000000	      4.54742282	     -6.33797188	     -0.42066263	      0.23760771	    -13.61391904	      7.42452067	      0.00000000	      0.00000000	     -6.59627385	      0.17075831	     -0.25277356	    -12.24994017	      0.22710856	     -0.26857190	    -10.83701831	      0.41518176	     -0.26857190	     -7.53888139	      0.41518176	     -0.22117686	     -6.12529990	      0.34821035	     -0.20537851	     -3.76911088	      0.26450463	     -0.18958017	    -47.11652451	      1.93165219	     -1.40585069	      0.00000000	      0.00000000	     47.55998453	    -28.45000679	     13.08738586	     83.68665331	     65.11082873	     -0.91953962	     27.36945919	     47.94300081	    -28.36305479	     15.52041401	     78.97501604	     56.83519466	      3.66594612	     18.99186954
      7.40000000	      0.90838807	      6.89514350	     92.10436738	      0.40015346	      0.94148203	      0.30222496	      3.43605207	     -3.60938759	     -0.97596180	      0.24791547	    -14.20451023	      6.19605380	      0.00000000	      0.00000000	      3.88868149	     -6.28142358	     -0.63031852	      0.23691122	    -13.57401321	      7.81117879	      0.00000000	      0.00000000	     -6.58926715	      0.15910756	     -0.26013552	    -12.23692802	      0.21161306	     -0.27639399	    -10.82550700	      0.38685413	     -0.27639399	     -7.53087342	      0.38685413	     -0.22761858	     -6.11879347	      0.32445214	     -0.21136011	     -3.76510725	      0.24645761	     -0.19510164	    -47.06647631	      1.79985656	     -1.44679574	      0.00000000	      0.00000000	     45.41351811	    -28.42856969	     12.13452080	     84.86565138	     64.58642966	     -0.98860565	     27.41641459	     45.61140387	    -28.08964529	     14.36188781	     80.37568927	     56.50496339	      3.56900524	     19.00195737
      7.41000000	      0.87001090	      7.28540045	     92.11740274	      0.39976624	      0.94187572	      0.29996641	      2.90112472	     -3.66033624	     -1.02693249	      0.25015355	    -14.33274266	      6.44455443	      0.00000000	      0.00000000	      3.32187989	     -6.24007010	     -0.67189990	      0.23739186	    -13.60155167	      8.06917707	      0.00000000	      0.00000000	     -6.60875395	      0.15615992	     -0.27249745	    -12.27311696	      0.20769269	     -0.28952854	    -10.85752186	      0.37968723	     -0.28952854	     -7.55314489	      0.37968723	     -0.23843527	     -6.13688892	      0.31844131	     -0.22140418	     -3.77624201	      0.24189172	     -0.20437309	    -47.20566858	      1.76651226	     -1.51554907	      0.00000000	      0.00000000	     43.12056283	    -28.43791256	     10.93046712	     86.87673384	     65.10346039	     -1.12644181	     27.39888404	     43.08690973	    -27.90018633	     12.81753886	     82.38082644	     57.25288404	      3.33488961	     18.89073578
      7.42000000	      0.88072879	      7.60831667	     92.11651897	      0.39945730	      0.94224349	      0.29792369	      2.49448394	     -3.65228873	     -1.02330528	      0.25319941	    -14.50725734	      6.53928530	      0.00000000	      0.00000000	      2.87975802	     -6.25566244	     -0.64643663	      0.23923549	    -13.70718403	      8.18841759	      0.00000000	      0.00000000	     -6.60845469	      0.15176806	     -0.29764373	    -12.27256120	      0.20185152	     -0.31624646	    -10.85703020	      0.36900885	     -0.31624646	     -7.55280286	      0.36900885	     -0.26043826	     -6.13661102	      0.30948542	     -0.24183553	     -3.77607101	      0.23508872	     -0.22323280	    -47.20353098	      1.71683061	     -1.65540513	      0.00000000	      0.00000000	     41.09871407	    -28.18068342	      9.86854642	     88.12059893	     67.65864566	     -1.60834820	     27.61283314	     40.58124503	    -27.58265743	     11.21354341	     83.92732317	     60.74087291	      2.49727440	     18.83310009
